<svg width="24" height="24" viewBox="0 0 24 24" fill="none" xmlns="http://www.w3.org/2000/svg">
<path d="M6.00002 6.60002C6.00002 4.94252 7.34252 3.60002 9.00002 3.60002C10.3238 3.60002 11.4488 4.45877 11.8463 5.65127C11.9213 5.87252 12.1125 6.03002 12.3413 6.05627C12.57 6.08252 12.7988 5.97752 12.9225 5.78252C13.2938 5.19377 13.9538 4.80377 14.7 4.80377C15.8588 4.80377 16.8 5.74502 16.8 6.90377C16.8 7.18127 16.7475 7.44377 16.65 7.68752C16.5638 7.89752 16.6088 8.14127 16.7588 8.31002C16.9088 8.47878 17.145 8.55002 17.3663 8.49002C17.5688 8.43377 17.7825 8.40377 18 8.40377C19.3238 8.40377 20.4 9.48002 20.4 10.8038C20.4 12.1275 19.3238 13.2038 18 13.2038L6.00002 13.2C4.67627 13.2 3.60002 12.1238 3.60002 10.8C3.60002 9.58127 4.51127 8.57252 5.68877 8.41877C5.86877 8.39627 6.03002 8.29127 6.12377 8.13752C6.21752 7.98377 6.23627 7.79252 6.17627 7.62002C6.06377 7.30127 6.00002 6.96002 6.00002 6.60002ZM9.00002 2.40002C6.67877 2.40002 4.80002 4.27877 4.80002 6.60002C4.80002 6.86627 4.82627 7.12877 4.87127 7.38002C3.43502 7.85252 2.40002 9.20627 2.40002 10.8C2.40002 12.7875 4.01252 14.4 6.00002 14.4H18C19.9875 14.4 21.6 12.7875 21.6 10.8C21.6 8.81252 19.9875 7.20002 18 7.20002H17.985C17.9925 7.10252 18 7.00127 18 6.90002C18 5.07752 16.5225 3.60002 14.7 3.60002C13.8863 3.60002 13.1438 3.89627 12.5663 4.38377C11.8238 3.19502 10.5038 2.40002 9.00002 2.40002ZM4.80002 16.2C4.47002 16.2 4.20002 16.47 4.20002 16.8V19.2C4.20002 19.53 4.47002 19.8 4.80002 19.8C5.13002 19.8 5.40002 19.53 5.40002 19.2V16.8C5.40002 16.47 5.13002 16.2 4.80002 16.2ZM12 16.2C11.67 16.2 11.4 16.47 11.4 16.8V19.2C11.4 19.53 11.67 19.8 12 19.8C12.33 19.8 12.6 19.53 12.6 19.2V16.8C12.6 16.47 12.33 16.2 12 16.2ZM19.2 16.2C18.87 16.2 18.6 16.47 18.6 16.8V19.2C18.6 19.53 18.87 19.8 19.2 19.8C19.53 19.8 19.8 19.53 19.8 19.2V16.8C19.8 16.47 19.53 16.2 19.2 16.2ZM8.40002 18C8.07002 18 7.80002 18.27 7.80002 18.6V21C7.80002 21.33 8.07002 21.6 8.40002 21.6C8.73002 21.6 9.00002 21.33 9.00002 21V18.6C9.00002 18.27 8.73002 18 8.40002 18ZM15.6 18C15.27 18 15 18.27 15 18.6V21C15 21.33 15.27 21.6 15.6 21.6C15.93 21.6 16.2 21.33 16.2 21V18.6C16.2 18.27 15.93 18 15.6 18Z" fill="black"/>
</svg>
