<svg width="24" height="24" viewBox="0 0 24 24" fill="none" xmlns="http://www.w3.org/2000/svg">
<path d="M6.6001 2.40002C6.2701 2.40002 6.0001 2.67002 6.0001 3.00002C6.0001 4.32377 6.78385 5.01002 7.3726 5.52377L7.4026 5.55002C8.0101 6.08252 8.39635 6.44627 8.39635 7.20002C8.39635 7.53002 8.66635 7.80002 8.99635 7.80002C9.32635 7.80002 9.59635 7.53002 9.59635 7.20002C9.59635 5.87627 8.8126 5.19002 8.22385 4.67627L8.19385 4.65002C7.58635 4.11752 7.2001 3.75377 7.2001 3.00002C7.2001 2.67002 6.9301 2.40002 6.6001 2.40002ZM4.8001 10.8H16.8001V18C16.8001 19.3238 15.7238 20.4 14.4001 20.4H7.2001C5.87635 20.4 4.8001 19.3238 4.8001 18V10.8ZM18.0001 10.8H18.6001C20.2576 10.8 21.6001 12.1425 21.6001 13.8C21.6001 15.4575 20.2576 16.8 18.6001 16.8H18.0001V10.8ZM18.0001 18H18.6001C20.9213 18 22.8001 16.1213 22.8001 13.8C22.8001 11.4788 20.9213 9.60002 18.6001 9.60002H4.8001C4.13635 9.60002 3.6001 10.1363 3.6001 10.8V18C3.6001 19.9875 5.2126 21.6 7.2001 21.6H14.4001C16.3876 21.6 18.0001 19.9875 18.0001 18ZM12.0001 3.00002C12.0001 2.67002 11.7301 2.40002 11.4001 2.40002C11.0701 2.40002 10.8001 2.67002 10.8001 3.00002C10.8001 4.32377 11.5838 5.01002 12.1726 5.52377L12.2026 5.55002C12.8101 6.08252 13.1963 6.44627 13.1963 7.20002C13.1963 7.53002 13.4663 7.80002 13.7963 7.80002C14.1263 7.80002 14.3963 7.53002 14.3963 7.20002C14.3963 5.87627 13.6126 5.19002 13.0238 4.67627L12.9938 4.65002C12.3863 4.11752 12.0001 3.75377 12.0001 3.00002Z" fill="black"/>
</svg>
