<svg width="24" height="24" viewBox="0 0 24 24" fill="none" xmlns="http://www.w3.org/2000/svg">
<path d="M10.2 3.60002V7.20002H13.8V3.60002H10.2ZM9 7.20002V3.60002C9 2.93627 9.53625 2.40002 10.2 2.40002H13.8C14.4638 2.40002 15 2.93627 15 3.60002V4.20002H17.4C17.73 4.20002 18 4.47002 18 4.80002C18 5.13002 17.73 5.40002 17.4 5.40002H15V7.20002H15.6C16.9238 7.20002 18 8.27627 18 9.60002V19.2C18 20.5238 16.9238 21.6 15.6 21.6H8.4C7.07625 21.6 6 20.5238 6 19.2V9.60002C6 8.27627 7.07625 7.20002 8.4 7.20002H9ZM15 8.40002H8.4C7.73625 8.40002 7.2 8.93627 7.2 9.60002V19.2C7.2 19.8638 7.73625 20.4 8.4 20.4H15.6C16.2638 20.4 16.8 19.8638 16.8 19.2V9.60002C16.8 8.93627 16.2638 8.40002 15.6 8.40002H15ZM11.4 10.8H12.6C13.2638 10.8 13.8 11.3363 13.8 12V12.6H14.4C15.0638 12.6 15.6 13.1363 15.6 13.8V15C15.6 15.6638 15.0638 16.2 14.4 16.2H13.8V16.8C13.8 17.4638 13.2638 18 12.6 18H11.4C10.7362 18 10.2 17.4638 10.2 16.8V16.2H9.6C8.93625 16.2 8.4 15.6638 8.4 15V13.8C8.4 13.1363 8.93625 12.6 9.6 12.6H10.2V12C10.2 11.3363 10.7362 10.8 11.4 10.8ZM12.6 15.9V15.3C12.6 15.135 12.735 15 12.9 15H14.4V13.8H12.9C12.735 13.8 12.6 13.665 12.6 13.5V12H11.4V13.5C11.4 13.665 11.265 13.8 11.1 13.8H9.6V15H11.1C11.265 15 11.4 15.135 11.4 15.3V16.8H12.6V15.9Z" fill="black"/>
</svg>
